<?xml version="1.0" ?><svg id="Layer_1" style="enable-background:new 0 0 512 512;" version="1.1" viewBox="0 0 512 512" xml:space="preserve" xmlns="http://www.w3.org/2000/svg" xmlns:xlink="http://www.w3.org/1999/xlink"><style type="text/css">
	.st0{fill:#16896B;}
	.st1{fill:#FFFFFF;}
	.st2{fill:#2EBC9A;}
	.st3{fill:#096047;}
</style><g><g><path class="st0" d="M431.8,506H80.2c-4.9,0-9-4-9-9V15c0-4.9,4-9,9-9h351.5c4.9,0,9,4,9,9V497    C440.7,502,436.7,506,431.8,506z" id="XMLID_14_"/><rect class="st1" height="471.2" id="XMLID_13_" width="340.7" x="85.7" y="20.4"/><g><g id="XMLID_172_"><g id="XMLID_187_"><rect class="st0" height="11.2" id="XMLID_188_" width="244.2" x="133.9" y="86.2"/></g><g id="XMLID_185_"><rect class="st0" height="11.2" id="XMLID_186_" width="244.2" x="133.9" y="109.4"/></g><g id="XMLID_183_"><rect class="st0" height="11.2" id="XMLID_184_" width="244.2" x="133.9" y="132.5"/></g><g id="XMLID_181_"><rect class="st0" height="11.2" id="XMLID_182_" width="244.2" x="133.9" y="155.6"/></g><g id="XMLID_179_"><rect class="st0" height="11.2" id="XMLID_180_" width="244.2" x="133.9" y="178.8"/></g><g id="XMLID_177_"><rect class="st0" height="11.2" id="XMLID_178_" width="244.2" x="133.9" y="201.9"/></g><g id="XMLID_175_"><rect class="st0" height="11.2" id="XMLID_176_" width="244.2" x="133.9" y="225.1"/></g><g id="XMLID_173_"><rect class="st0" height="11.2" id="XMLID_174_" width="180.4" x="133.9" y="248.2"/></g></g></g><polygon class="st2" id="XMLID_4_" points="274,156 274,6 397.4,6 397.4,156 335.7,119.8   "/><polygon class="st0" id="XMLID_3_" points="356,321.4 85.7,321.4 85.7,447.6 356,447.6 313.3,384.5   "/><polygon class="st2" id="XMLID_2_" points="332.4,333.8 85.7,333.8 85.7,435.3 332.4,435.3 298,384.6   "/><polygon class="st3" id="XMLID_1_" points="258.1,20.4 274,20.4 274,6   "/></g><g id="XMLID_1469_"><g id="XMLID_95_"><path class="st1" d="M159.3,397.6c0-2.2-0.8-4.1-2.4-5.5c-1.6-1.4-4.4-2.7-8.4-3.8c-5.8-1.6-10.2-3.7-13.3-6.3     c-3.1-2.6-4.7-6-4.7-10.1c0-4.3,1.7-7.9,5.1-10.6c3.4-2.8,7.8-4.2,13.2-4.2c5.8,0,10.4,1.5,13.9,4.6c3.5,3.1,5.1,6.9,5,11.5     l-0.1,0.2h-8.6c0-2.8-0.9-5.1-2.8-6.7c-1.9-1.7-4.4-2.5-7.5-2.5c-3,0-5.3,0.7-7,2.1c-1.6,1.4-2.4,3.3-2.4,5.5     c0,2.1,0.9,3.8,2.7,5.1c1.8,1.3,4.7,2.6,8.9,3.8c5.6,1.6,9.9,3.7,12.8,6.4c2.9,2.7,4.4,6.2,4.4,10.4c0,4.4-1.7,8-5.2,10.6     c-3.5,2.6-8,4-13.7,4c-5.4,0-10.2-1.4-14.2-4.3c-4-2.9-6-7-5.9-12.2l0.1-0.2h8.6c0,3.2,1.1,5.6,3.3,7.3c2.2,1.6,4.9,2.4,8.1,2.4     c3.2,0,5.6-0.7,7.4-2C158.5,401.6,159.3,399.8,159.3,397.6z" id="XMLID_100_"/><path class="st1" d="M196.8,396.8l1,3.9h0.2l0.9-3.8l12.8-39h9.5l-19.1,53.5h-8.5l-19.1-53.5h9.5L196.8,396.8z" id="XMLID_98_"/><path class="st1" d="M268.8,404.1c-1.5,2.1-3.8,3.9-7,5.6c-3.2,1.6-7.4,2.4-12.5,2.4c-6.3,0-11.5-2-15.6-6.1     s-6.1-9.3-6.1-15.8V379c0-6.5,2-11.7,5.9-15.8c3.9-4.1,9-6.1,15.2-6.1c6.2,0,11.1,1.6,14.5,4.7c3.5,3.1,5.2,7.2,5.1,12.3     l-0.1,0.2h-8.5c0-3-0.9-5.4-2.8-7.3c-1.9-1.8-4.6-2.8-8.1-2.8c-3.7,0-6.7,1.4-8.9,4.1c-2.3,2.8-3.4,6.3-3.4,10.5v11.2     c0,4.3,1.2,7.9,3.5,10.6c2.4,2.8,5.4,4.2,9.2,4.2c2.9,0,5.1-0.3,6.8-1c1.7-0.6,2.9-1.4,3.8-2.4v-11.1h-11.2v-6.7h20.1V404.1z" id="XMLID_96_"/></g></g></g></svg>